<svg
              width="100%"
              viewBox="0 0 350 500"
              preserveAspectRatio="none"
              fill="none"
              xmlns="http://www.w3.org/2000/svg"
            >
              <path
                d="M340.01 14.612V0H246.156H28.662H0V29.786V506.362V522.098V555.256H23.604H318.654L319.216 546.826L320.902 526.594L323.712 514.23L329.332 500.18L337.762 474.328L340.572 451.848L340.01 428.244L336.638 408.012L332.142 393.962L322.588 368.672L318.654 344.506V329.332L319.778 311.348L323.15 297.298L332.704 270.322L338.324 252.338L340.572 235.478V214.122L338.886 200.634L336.638 188.27L332.142 174.782L322.588 148.93L319.778 133.194L318.654 121.392V107.342L319.778 98.912L320.902 89.358L323.15 76.432L327.646 64.63L334.39 46.084L338.324 29.786L340.01 14.612Z"
                fill="#B5D782"
              />
            </svg>