<?xml version="1.0" encoding="UTF-8"?>
<svg id="Layer_2" xmlns="http://www.w3.org/2000/svg" viewBox="0 0 550 83.8">
  <defs>
    <style>
      .cls-1 {
        fill: #f6a09e;
      }
    </style>
  </defs>
  <g id="Layer_1-2" data-name="Layer_1">
    <path class="cls-1" d="M550,40.2v34.47c-20.43,3.81-34.62,6.08-52.39,7.4-65.23,4.86-116.23-1.67-143.36-5.29-30-4.01-55.73-9.29-69.28-12.1-31.18-6.46-40.91-9.87-65.58-15.12-6.44-1.37-47.17-9.92-89.32-13.39-30.63-2.53-75.71-3.4-130.07,4.87V7.45C23.4,3.32,55.71-.63,94.12.09c38.48.72,67.34,5.82,111.55,13.83,63.02,11.41,67.1,16.89,122,25.92,29.06,4.78,63.41,10.43,107.19,11.23,30.03.55,65.35-1.03,115.14-10.87Z"/>
  </g>
</svg>